<svg width="20" height="22" viewBox="0 0 20 22" fill="none" xmlns="http://www.w3.org/2000/svg">
<g id="Bag 2">
<path id="Fill 4" opacity="0.6" d="M14.6202 21.101H5.37955C2.68906 21.101 0.499817 18.9102 0.499817 16.2167V10.8338C0.499817 8.14034 2.68906 5.94949 5.37955 5.94949H14.6202C17.3107 5.94949 19.5 8.14034 19.5 10.8338V16.2167C19.5 18.9102 17.3107 21.101 14.6202 21.101Z" fill="#8D8D8D"/>
<path id="Fill 1" d="M13.7551 8.9798C13.3439 8.9798 13.0102 8.65287 13.0102 8.25004V5.29989C13.0102 3.67789 11.6635 2.35849 10.0088 2.35849C9.24709 2.35849 8.44759 2.65818 7.87851 3.20987C7.30843 3.76351 6.99261 4.50008 6.98963 5.28627V8.25004C6.98963 8.65287 6.65592 8.9798 6.24475 8.9798C5.83358 8.9798 5.49988 8.65287 5.49988 8.25004V5.29989C5.50484 4.10407 5.97759 3.00068 6.82973 2.1746C7.68087 1.34657 8.7813 0.931096 10.0118 0.898987C12.4848 0.898987 14.4999 2.87321 14.4999 5.29989V8.25004C14.4999 8.65287 14.1662 8.9798 13.7551 8.9798Z" fill="#8D8D8D"/>
</g>
</svg>
