<svg width="20" height="22" viewBox="0 0 20 22" fill="none" xmlns="http://www.w3.org/2000/svg">
<g id="Home">
<path id="Home_2" d="M7.14378 19.8708V16.773C7.14376 15.988 7.77572 15.3502 8.55849 15.3453H11.4327C12.219 15.3453 12.8564 15.9845 12.8564 16.773V16.773V19.8618C12.8563 20.5427 13.4041 21.096 14.083 21.101H16.0439C16.9598 21.1034 17.8389 20.7402 18.4873 20.0916C19.1357 19.443 19.5001 18.5624 19.5001 17.644V8.84429C19.5001 8.10241 19.1722 7.3987 18.6047 6.92272L11.9431 1.58007C10.7786 0.645575 9.11543 0.675763 7.98544 1.6519L1.46702 6.92272C0.872743 7.38466 0.517552 8.09046 0.5 8.84429V17.635C0.5 19.5492 2.04739 21.101 3.9562 21.101H5.87233C6.19921 21.1034 6.51353 20.9748 6.74552 20.7439C6.97751 20.5129 7.10797 20.1986 7.10796 19.8708H7.14378Z" fill="#BBBBBB"/>
</g>
</svg>
