<svg width="21" height="21" viewBox="0 0 21 21" fill="none" xmlns="http://www.w3.org/2000/svg">
<path d="M20.3996 2.18217L20.3649 2.1605L15.9795 0L11.2462 6.31103L13.4239 9.21477C13.3587 10.3098 12.8943 11.343 12.1186 12.1187C11.3429 12.8944 10.3097 13.3588 9.21467 13.4239L6.31098 11.2463L0 15.9795L2.14252 20.3282L2.16055 20.3649L2.18227 20.3995C2.29661 20.5837 2.45619 20.7356 2.64584 20.8407C2.83548 20.9459 3.04887 21.0007 3.26569 21H4.39726C6.57757 21 8.73653 20.5706 10.7509 19.7362C12.7652 18.9018 14.5955 17.6789 16.1372 16.1371C17.6789 14.5954 18.9018 12.7652 19.7362 10.7508C20.5706 8.73648 21 6.57752 21 4.39721V3.26559C21.0007 3.04877 20.9459 2.83538 20.8408 2.64574C20.7357 2.4561 20.5838 2.29651 20.3996 2.18217ZM19.3794 4.39721C19.3794 12.6584 12.6584 19.3794 4.39726 19.3794H3.48163L2.04812 16.4693L6.31128 13.2719L8.68478 15.052H8.95487C10.5715 15.0502 12.1213 14.4072 13.2644 13.2641C14.4075 12.121 15.0505 10.5711 15.0523 8.95451V8.68443L13.2723 6.31098L16.4693 2.04807L19.3794 3.48183V4.39721Z" fill="black" fill-opacity="0.3"/>
</svg>
