<svg width="27" height="24" viewBox="0 0 27 24" fill="none" xmlns="http://www.w3.org/2000/svg">
<path d="M21.2167 11H5.58334C4.3499 11 3.35001 11.8954 3.35001 13V20C3.35001 21.1046 4.3499 22 5.58334 22H21.2167C22.4501 22 23.45 21.1046 23.45 20V13C23.45 11.8954 22.4501 11 21.2167 11Z" stroke="black" stroke-opacity="0.3" stroke-width="2" stroke-linecap="round" stroke-linejoin="round"/>
<path d="M7.81667 11V7C7.81667 5.67392 8.40491 4.40215 9.45199 3.46447C10.4991 2.52678 11.9192 2 13.4 2C14.8808 2 16.3009 2.52678 17.348 3.46447C18.3951 4.40215 18.9833 5.67392 18.9833 7V11" stroke="black" stroke-opacity="0.3" stroke-width="2" stroke-linecap="round" stroke-linejoin="round"/>
</svg>
