<svg width="23" height="24" viewBox="0 0 23 24" fill="none" xmlns="http://www.w3.org/2000/svg">
<g id="profile">
<path id="Vector" d="M11.6536 10.9171C11.5577 10.9075 11.4427 10.9075 11.3373 10.9171C9.05649 10.8404 7.24524 8.97169 7.24524 6.67169C7.24524 4.32377 9.14274 2.41669 11.5002 2.41669C13.8482 2.41669 15.7552 4.32377 15.7552 6.67169C15.7457 8.97169 13.9344 10.8404 11.6536 10.9171Z" stroke="#E34625" stroke-width="1.5" stroke-linecap="round" stroke-linejoin="round"/>
<path id="Vector_2" d="M6.86193 14.4533C4.54277 16.0058 4.54277 18.5358 6.86193 20.0787C9.49735 21.8421 13.8194 21.8421 16.4549 20.0787C18.774 18.5262 18.774 15.9962 16.4549 14.4533C13.829 12.6996 9.50693 12.6996 6.86193 14.4533Z" stroke="#E34625" stroke-width="1.5" stroke-linecap="round" stroke-linejoin="round"/>
</g>
</svg>
