<svg width="24" height="24" viewBox="0 0 24 24" fill="none" xmlns="http://www.w3.org/2000/svg">
<g id="published_with_changes">
<mask id="mask0_189_410" style="mask-type:alpha" maskUnits="userSpaceOnUse" x="0" y="0" width="25" height="24">
<rect id="Bounding box" x="0.000183105" width="24" height="24" fill="#8D8D8D"/>
</mask>
<g mask="url(#mask0_189_410)">
<path id="published_with_changes_2" d="M11.0002 21.95C9.73352 21.8167 8.55435 21.4708 7.46268 20.9125C6.37102 20.3542 5.42102 19.6292 4.61268 18.7375C3.80435 17.8458 3.16685 16.825 2.70018 15.675C2.23352 14.525 2.00018 13.3 2.00018 12C2.00018 10.4833 2.30435 9.08332 2.91268 7.79999C3.52102 6.51665 4.35018 5.41665 5.40018 4.49999H3.00018V2.49999H9.00018V8.49999H7.00018V5.77499C6.08352 6.50832 5.35435 7.41249 4.81268 8.48749C4.27102 9.56249 4.00018 10.7333 4.00018 12C4.00018 14.05 4.67102 15.8208 6.01268 17.3125C7.35435 18.8042 9.01685 19.675 11.0002 19.925V21.95ZM10.5752 16.6L6.35018 12.35L7.75018 10.95L10.5752 13.775L16.2502 8.09999L17.6502 9.52499L10.5752 16.6ZM15.0002 21.5V15.5H17.0002V18.225C17.9168 17.475 18.646 16.5667 19.1877 15.5C19.7293 14.4333 20.0002 13.2667 20.0002 12C20.0002 9.94999 19.3293 8.17915 17.9877 6.68749C16.646 5.19582 14.9835 4.32499 13.0002 4.07499V2.04999C15.5335 2.29999 17.6668 3.36665 19.4002 5.24999C21.1335 7.13332 22.0002 9.38332 22.0002 12C22.0002 13.5167 21.696 14.9167 21.0877 16.2C20.4793 17.4833 19.6502 18.5833 18.6002 19.5H21.0002V21.5H15.0002Z" fill="#E34625"/>
</g>
</g>
</svg>
