<svg width="24" height="24" viewBox="0 0 24 24" fill="none" xmlns="http://www.w3.org/2000/svg">
<g id="storefront">
<mask id="mask0_3_76" style="mask-type:alpha" maskUnits="userSpaceOnUse" x="-1" y="0" width="25" height="24">
<rect id="Bounding box" x="-0.000183105" width="24" height="24" fill="#D9D9D9"/>
</mask>
<g mask="url(#mask0_3_76)">
<path id="storefront_2" d="M21.0248 11.05V19C21.0248 19.55 20.829 20.0208 20.4373 20.4125C20.0457 20.8042 19.5748 21 19.0248 21H5.02484C4.47484 21 4.00401 20.8042 3.61234 20.4125C3.22068 20.0208 3.02484 19.55 3.02484 19V11.05C2.64151 10.7 2.34568 10.25 2.13734 9.7C1.92901 9.15 1.92484 8.55 2.12484 7.9L3.17484 4.5C3.30818 4.06667 3.54568 3.70833 3.88734 3.425C4.22901 3.14167 4.62484 3 5.07484 3H18.9748C19.4248 3 19.8165 3.1375 20.1498 3.4125C20.4832 3.6875 20.7248 4.05 20.8748 4.5L21.9248 7.9C22.1248 8.55 22.1207 9.14167 21.9123 9.675C21.704 10.2083 21.4082 10.6667 21.0248 11.05ZM14.2248 10C14.6748 10 15.0165 9.84583 15.2498 9.5375C15.4832 9.22917 15.5748 8.88333 15.5248 8.5L14.9748 5H13.0248V8.7C13.0248 9.05 13.1415 9.35417 13.3748 9.6125C13.6082 9.87083 13.8915 10 14.2248 10ZM9.72484 10C10.1082 10 10.4207 9.87083 10.6623 9.6125C10.904 9.35417 11.0248 9.05 11.0248 8.7V5H9.07484L8.52484 8.5C8.45818 8.9 8.54568 9.25 8.78734 9.55C9.02901 9.85 9.34151 10 9.72484 10ZM5.27484 10C5.57484 10 5.83734 9.89167 6.06234 9.675C6.28734 9.45833 6.42484 9.18333 6.47484 8.85L7.02484 5H5.07484L4.07484 8.35C3.97484 8.68333 4.02901 9.04167 4.23734 9.425C4.44568 9.80833 4.79151 10 5.27484 10ZM18.7748 10C19.2582 10 19.6082 9.80833 19.8248 9.425C20.0415 9.04167 20.0915 8.68333 19.9748 8.35L18.9248 5H17.0248L17.5748 8.85C17.6248 9.18333 17.7623 9.45833 17.9873 9.675C18.2123 9.89167 18.4748 10 18.7748 10ZM5.02484 19H19.0248V11.95C18.9415 11.9833 18.8873 12 18.8623 12H18.7748C18.3248 12 17.929 11.925 17.5873 11.775C17.2457 11.625 16.9082 11.3833 16.5748 11.05C16.2748 11.35 15.9332 11.5833 15.5498 11.75C15.1665 11.9167 14.7582 12 14.3248 12C13.8748 12 13.454 11.9167 13.0623 11.75C12.6707 11.5833 12.3248 11.35 12.0248 11.05C11.7415 11.35 11.4123 11.5833 11.0373 11.75C10.6623 11.9167 10.2582 12 9.82484 12C9.34151 12 8.90401 11.9167 8.51234 11.75C8.12068 11.5833 7.77484 11.35 7.47484 11.05C7.12484 11.4 6.77901 11.6458 6.43734 11.7875C6.09568 11.9292 5.70818 12 5.27484 12H5.16234C5.12068 12 5.07484 11.9833 5.02484 11.95V19Z" fill="#8D8D8D"/>
</g>
</g>
</svg>
